<mxfile host="app.diagrams.net" modified="2020-09-07T05:32:51.388Z" agent="5.0 (Macintosh; Intel Mac OS X 10_15_6) AppleWebKit/537.36 (KHTML, like Gecko) Chrome/85.0.4183.83 Safari/537.36" etag="fsuvrfTMke8IEStLiUyp" version="13.6.6" type="github">
  <diagram id="H8ZhVeUGdGvCXGNmLCNN" name="Page-1">
    <mxGraphModel dx="792" dy="536" grid="1" gridSize="10" guides="1" tooltips="1" connect="1" arrows="1" fold="1" page="1" pageScale="1" pageWidth="827" pageHeight="1169" math="0" shadow="0">
      <root>
        <mxCell id="0" />
        <mxCell id="1" parent="0" />
        <mxCell id="Uf8UQ3KTwdbZd8pZveF2-1" value="&lt;h3&gt;comments&lt;/h3&gt;&lt;div style=&quot;text-align: left ; font-size: 11px&quot;&gt;&lt;span style=&quot;font-size: 12px&quot;&gt;・content&lt;/span&gt;&lt;br&gt;&lt;/div&gt;&lt;div style=&quot;text-align: left ; font-size: 11px&quot;&gt;&lt;span style=&quot;font-size: 12px&quot;&gt;&lt;br&gt;&lt;/span&gt;&lt;/div&gt;&lt;div style=&quot;text-align: left ; font-size: 11px&quot;&gt;&lt;span style=&quot;font-size: 12px&quot;&gt;・&lt;font color=&quot;#ff3333&quot;&gt;user_id&lt;/font&gt;&lt;/span&gt;&lt;/div&gt;&lt;div style=&quot;text-align: left ; font-size: 11px&quot;&gt;&lt;span style=&quot;font-size: 12px&quot;&gt;・&lt;font color=&quot;#ff3333&quot;&gt;item_id&lt;/font&gt;&lt;/span&gt;&lt;/div&gt;&lt;div style=&quot;text-align: left ; font-size: 11px&quot;&gt;&lt;span style=&quot;font-size: 12px&quot;&gt;&lt;font color=&quot;#ff3333&quot;&gt;&lt;br&gt;&lt;/font&gt;&lt;/span&gt;&lt;/div&gt;&lt;div style=&quot;text-align: left ; font-size: 11px&quot;&gt;&lt;span style=&quot;font-size: 12px&quot;&gt;&lt;br&gt;&lt;/span&gt;&lt;/div&gt;" style="whiteSpace=wrap;html=1;aspect=fixed;align=center;rounded=1;" vertex="1" parent="1">
          <mxGeometry x="340" width="140" height="140" as="geometry" />
        </mxCell>
        <mxCell id="Uf8UQ3KTwdbZd8pZveF2-2" value="&lt;h3&gt;users&lt;/h3&gt;&lt;div&gt;・nickname&lt;/div&gt;&lt;div&gt;・email&lt;/div&gt;&lt;div&gt;・password&lt;/div&gt;&lt;div&gt;&lt;br&gt;&lt;/div&gt;&lt;div style=&quot;text-align: left ; font-size: 11px&quot;&gt;&lt;span style=&quot;font-size: 12px&quot;&gt;&lt;br&gt;&lt;/span&gt;&lt;/div&gt;" style="whiteSpace=wrap;html=1;aspect=fixed;align=center;rounded=1;" vertex="1" parent="1">
          <mxGeometry x="10" width="140" height="140" as="geometry" />
        </mxCell>
        <mxCell id="Uf8UQ3KTwdbZd8pZveF2-3" value="&lt;h3&gt;user_profiles&lt;/h3&gt;&lt;div style=&quot;text-align: left ; font-size: 11px&quot;&gt;&lt;span style=&quot;font-size: 12px&quot;&gt;・first_name&lt;/span&gt;&lt;br&gt;&lt;/div&gt;&lt;div style=&quot;text-align: left ; font-size: 11px&quot;&gt;&lt;span style=&quot;font-size: 12px&quot;&gt;・last_name&lt;/span&gt;&lt;/div&gt;&lt;div style=&quot;text-align: left ; font-size: 11px&quot;&gt;&lt;span style=&quot;font-size: 12px&quot;&gt;・first_name_kana&lt;/span&gt;&lt;/div&gt;&lt;div style=&quot;text-align: left ; font-size: 11px&quot;&gt;&lt;span style=&quot;font-size: 12px&quot;&gt;・last_name_kana&lt;/span&gt;&lt;/div&gt;&lt;div style=&quot;text-align: left ; font-size: 11px&quot;&gt;&lt;span style=&quot;font-size: 12px&quot;&gt;・birth_date&lt;/span&gt;&lt;/div&gt;&lt;div style=&quot;text-align: left ; font-size: 11px&quot;&gt;&lt;span style=&quot;font-size: 12px&quot;&gt;&lt;br&gt;&lt;/span&gt;&lt;/div&gt;&lt;div style=&quot;text-align: left ; font-size: 11px&quot;&gt;&lt;span style=&quot;font-size: 12px&quot;&gt;・&lt;font color=&quot;#ff3333&quot;&gt;user_id&lt;/font&gt;&lt;/span&gt;&lt;/div&gt;&lt;div style=&quot;text-align: left ; font-size: 11px&quot;&gt;&lt;span style=&quot;font-size: 12px&quot;&gt;&lt;font color=&quot;#ff3333&quot;&gt;&lt;br&gt;&lt;/font&gt;&lt;/span&gt;&lt;/div&gt;&lt;div style=&quot;text-align: left ; font-size: 11px&quot;&gt;&lt;span style=&quot;font-size: 12px&quot;&gt;&lt;br&gt;&lt;/span&gt;&lt;/div&gt;" style="whiteSpace=wrap;html=1;aspect=fixed;align=center;rounded=1;" vertex="1" parent="1">
          <mxGeometry x="10" y="200" width="140" height="140" as="geometry" />
        </mxCell>
        <mxCell id="Uf8UQ3KTwdbZd8pZveF2-4" value="&lt;h3&gt;Items&lt;/h3&gt;&lt;div&gt;・image&lt;/div&gt;&lt;div&gt;・name&lt;/div&gt;&lt;div&gt;・content&lt;/div&gt;&lt;div&gt;・price&lt;/div&gt;&lt;div style=&quot;text-align: left ; font-size: 11px&quot;&gt;&lt;span style=&quot;font-size: 12px&quot;&gt;&lt;br&gt;&lt;/span&gt;&lt;/div&gt;&lt;div style=&quot;text-align: left ; font-size: 11px&quot;&gt;&lt;span style=&quot;font-size: 12px&quot;&gt;・&lt;font color=&quot;#ff3333&quot;&gt;user_id&lt;/font&gt;&lt;/span&gt;&lt;/div&gt;&lt;div style=&quot;text-align: left ; font-size: 11px&quot;&gt;&lt;span style=&quot;font-size: 12px&quot;&gt;&lt;font color=&quot;#ff3333&quot;&gt;&lt;br&gt;&lt;/font&gt;&lt;/span&gt;&lt;/div&gt;&lt;div style=&quot;text-align: left ; font-size: 11px&quot;&gt;&lt;span style=&quot;font-size: 12px&quot;&gt;&lt;br&gt;&lt;/span&gt;&lt;/div&gt;" style="whiteSpace=wrap;html=1;aspect=fixed;align=center;rounded=1;" vertex="1" parent="1">
          <mxGeometry x="640" width="180" height="180" as="geometry" />
        </mxCell>
      </root>
    </mxGraphModel>
  </diagram>
</mxfile>
